<svg width="18" height="18" viewBox="0 0 18 18" fill="none" xmlns="http://www.w3.org/2000/svg">
<path d="M9 1.5C4.86 1.5 1.5 4.86 1.5 9C1.5 13.14 4.86 16.5 9 16.5C13.14 16.5 16.5 13.14 16.5 9C16.5 4.86 13.14 1.5 9 1.5ZM12.0225 9.3975L9.7725 11.6475C9.66 11.76 9.5175 11.8125 9.375 11.8125C9.2325 11.8125 9.09 11.76 8.9775 11.6475C8.76 11.43 8.76 11.07 8.9775 10.8525L10.2675 9.5625H6.375C6.0675 9.5625 5.8125 9.3075 5.8125 9C5.8125 8.6925 6.0675 8.4375 6.375 8.4375H10.2675L8.9775 7.1475C8.76 6.93 8.76 6.57 8.9775 6.3525C9.195 6.135 9.555 6.135 9.7725 6.3525L12.0225 8.6025C12.24 8.82 12.24 9.18 12.0225 9.3975Z" fill="white"/>
</svg>
