<svg width="10" height="10" viewBox="0 0 10 10" fill="none" xmlns="http://www.w3.org/2000/svg">
<path d="M3.98711 7.84245C3.90794 7.84245 3.82878 7.81328 3.76628 7.75078L1.23711 5.22161C1.11628 5.10078 1.11628 4.90078 1.23711 4.77995L3.76628 2.25078C3.88711 2.12995 4.08711 2.12995 4.20794 2.25078C4.32878 2.37161 4.32878 2.57161 4.20794 2.69245L1.89961 5.00078L4.20794 7.30911C4.32878 7.42995 4.32878 7.62995 4.20794 7.75078C4.14961 7.81328 4.06628 7.84245 3.98711 7.84245Z" fill="#292D32"/>
<path d="M8.5418 5.3125H1.5293C1.35846 5.3125 1.2168 5.17083 1.2168 5C1.2168 4.82917 1.35846 4.6875 1.5293 4.6875H8.5418C8.71263 4.6875 8.8543 4.82917 8.8543 5C8.8543 5.17083 8.71263 5.3125 8.5418 5.3125Z" fill="#292D32"/>
</svg>
