<svg xmlns="http://www.w3.org/2000/svg" width="18" height="19" viewBox="0 0 18 19" fill="none">
  <path d="M12.1875 17.375C12.9124 17.375 13.5 16.7874 13.5 16.0625C13.5 15.3376 12.9124 14.75 12.1875 14.75C11.4626 14.75 10.875 15.3376 10.875 16.0625C10.875 16.7874 11.4626 17.375 12.1875 17.375Z" fill="#6750A4"/>
  <path d="M6.1875 17.375C6.91237 17.375 7.5 16.7874 7.5 16.0625C7.5 15.3376 6.91237 14.75 6.1875 14.75C5.46263 14.75 4.875 15.3376 4.875 16.0625C4.875 16.7874 5.46263 17.375 6.1875 17.375Z" fill="#6750A4"/>
  <path d="M3.63 3.455L3.48 5.2925C3.45 5.645 3.7275 5.9375 4.08 5.9375H15.5625C15.8775 5.9375 16.14 5.6975 16.1625 5.3825C16.26 4.055 15.2475 2.975 13.92 2.975H4.7025C4.6275 2.645 4.4775 2.33 4.245 2.0675C3.87 1.67 3.345 1.4375 2.805 1.4375H1.5C1.1925 1.4375 0.9375 1.6925 0.9375 2C0.9375 2.3075 1.1925 2.5625 1.5 2.5625H2.805C3.0375 2.5625 3.255 2.66 3.4125 2.825C3.57 2.9975 3.645 3.2225 3.63 3.455Z" fill="#6750A4"/>
  <path d="M15.3825 7.0625H3.87754C3.56254 7.0625 3.30754 7.3025 3.27754 7.61L3.00754 10.8725C2.90254 12.155 3.90754 13.25 5.19004 13.25H13.53C14.655 13.25 15.645 12.3275 15.7275 11.2025L15.975 7.7C16.005 7.355 15.735 7.0625 15.3825 7.0625Z" fill="#6750A4"/>
</svg>