<svg width="18" height="18" viewBox="0 0 18 18" fill="none" xmlns="http://www.w3.org/2000/svg">
<path d="M16.2223 10.9946L15.9148 12.3896C15.3823 14.7896 13.4998 16.4996 10.7848 16.4996H7.2148C4.4998 16.4996 2.6173 14.7896 2.0848 12.3896L1.7773 10.9946C1.6273 10.3121 2.0323 9.53961 2.6848 9.27711L3.7498 8.84961L7.8823 7.19211C8.2423 7.04961 8.6248 6.97461 8.9998 6.97461C9.3748 6.97461 9.7573 7.04961 10.1173 7.19211L14.2498 8.84961L15.3148 9.27711C15.9673 9.53961 16.3723 10.3121 16.2223 10.9946Z" fill="#6750A4"/>
<path d="M14.25 6V7.08C14.25 7.3425 13.98 7.53 13.7325 7.425L10.53 6.1425C9.5475 5.76 8.4525 5.76 7.4625 6.15L4.2675 7.4325C4.02 7.5375 3.75 7.35 3.75 7.0875V6C3.75 4.7625 4.7625 3.75 6 3.75H12C13.2375 3.75 14.25 4.7625 14.25 6Z" fill="#6750A4"/>
<path d="M10.875 3.75H7.125V2.25C7.125 1.8375 7.4625 1.5 7.875 1.5H10.125C10.5375 1.5 10.875 1.8375 10.875 2.25V3.75Z" fill="#6750A4"/>
</svg>
