<svg width="141" height="48" viewBox="0 0 141 48" fill="none" xmlns="http://www.w3.org/2000/svg">
<rect x="1.21875" y="0.5" width="139" height="47" rx="19.5" fill="white"/>
<rect x="1.21875" y="0.5" width="139" height="47" rx="19.5" stroke="#CAC4D0"/>
<g clip-path="url(#clip0_1_71185)">
<rect width="40" height="40" transform="translate(4.71875 4)" fill="#6750A4" fill-opacity="0.12"/>
<path d="M24.7188 14C19.1988 14 14.7188 18.48 14.7188 24C14.7188 29.52 19.1988 34 24.7188 34C30.2388 34 34.7188 29.52 34.7188 24C34.7188 18.48 30.2388 14 24.7188 14ZM24.7188 32C20.2987 32 16.7188 28.42 16.7188 24C16.7188 19.58 20.2987 16 24.7188 16C29.1388 16 32.7188 19.58 32.7188 24C32.7188 28.42 29.1388 32 24.7188 32Z" fill="#6750A4"/>
<path d="M24.7188 29C27.4802 29 29.7188 26.7614 29.7188 24C29.7188 21.2386 27.4802 19 24.7188 19C21.9573 19 19.7188 21.2386 19.7188 24C19.7188 26.7614 21.9573 29 24.7188 29Z" fill="#6750A4"/>
</g>
<path d="M58.5107 25.2881H55.9199V23.9277H58.5107C58.9619 23.9277 59.3265 23.8548 59.6045 23.709C59.8825 23.5632 60.0853 23.3626 60.2129 23.1074C60.3451 22.8477 60.4111 22.5514 60.4111 22.2188C60.4111 21.9043 60.3451 21.6104 60.2129 21.3369C60.0853 21.0589 59.8825 20.8356 59.6045 20.667C59.3265 20.4984 58.9619 20.4141 58.5107 20.4141H56.4463V29H54.7305V19.0469H58.5107C59.2809 19.0469 59.9349 19.1836 60.4727 19.457C61.015 19.7259 61.4274 20.0996 61.71 20.5781C61.9925 21.0521 62.1338 21.5944 62.1338 22.2051C62.1338 22.8477 61.9925 23.3991 61.71 23.8594C61.4274 24.3197 61.015 24.6729 60.4727 24.9189C59.9349 25.165 59.2809 25.2881 58.5107 25.2881ZM65.2621 23.0117V29H63.6146V21.6035H65.1869L65.2621 23.0117ZM67.5248 21.5557L67.5111 23.0869C67.4109 23.0687 67.3015 23.055 67.183 23.0459C67.0691 23.0368 66.9551 23.0322 66.8412 23.0322C66.5587 23.0322 66.3103 23.0732 66.0961 23.1553C65.8819 23.2327 65.7019 23.3467 65.5561 23.4971C65.4148 23.6429 65.3054 23.8206 65.2279 24.0303C65.1505 24.2399 65.1049 24.4746 65.0912 24.7344L64.7152 24.7617C64.7152 24.2969 64.7608 23.8662 64.852 23.4697C64.9431 23.0732 65.0798 22.7246 65.2621 22.4238C65.449 22.123 65.6814 21.8883 65.9594 21.7197C66.2419 21.5511 66.5678 21.4668 66.9369 21.4668C67.0372 21.4668 67.1443 21.4759 67.2582 21.4941C67.3767 21.5124 67.4656 21.5329 67.5248 21.5557ZM68.1648 25.3838V25.2266C68.1648 24.6934 68.2423 24.1989 68.3973 23.7432C68.5522 23.2829 68.7755 22.8841 69.0672 22.5469C69.3634 22.2051 69.7234 21.9408 70.1473 21.7539C70.5757 21.5625 71.0587 21.4668 71.5965 21.4668C72.1388 21.4668 72.6219 21.5625 73.0457 21.7539C73.4741 21.9408 73.8364 22.2051 74.1326 22.5469C74.4288 22.8841 74.6544 23.2829 74.8094 23.7432C74.9643 24.1989 75.0418 24.6934 75.0418 25.2266V25.3838C75.0418 25.917 74.9643 26.4115 74.8094 26.8672C74.6544 27.3229 74.4288 27.7217 74.1326 28.0635C73.8364 28.4007 73.4764 28.665 73.0525 28.8564C72.6287 29.0433 72.1479 29.1367 71.6102 29.1367C71.0678 29.1367 70.5825 29.0433 70.1541 28.8564C69.7303 28.665 69.3702 28.4007 69.074 28.0635C68.7778 27.7217 68.5522 27.3229 68.3973 26.8672C68.2423 26.4115 68.1648 25.917 68.1648 25.3838ZM69.8123 25.2266V25.3838C69.8123 25.7165 69.8465 26.0309 69.9148 26.3271C69.9832 26.6234 70.0903 26.8831 70.2361 27.1064C70.382 27.3298 70.5688 27.5052 70.7967 27.6328C71.0245 27.7604 71.2957 27.8242 71.6102 27.8242C71.9155 27.8242 72.1798 27.7604 72.4031 27.6328C72.631 27.5052 72.8178 27.3298 72.9637 27.1064C73.1095 26.8831 73.2166 26.6234 73.285 26.3271C73.3579 26.0309 73.3943 25.7165 73.3943 25.3838V25.2266C73.3943 24.8984 73.3579 24.5885 73.285 24.2969C73.2166 24.0007 73.1072 23.7386 72.9568 23.5107C72.811 23.2829 72.6242 23.1051 72.3963 22.9775C72.173 22.8454 71.9064 22.7793 71.5965 22.7793C71.2866 22.7793 71.0177 22.8454 70.7898 22.9775C70.5665 23.1051 70.382 23.2829 70.2361 23.5107C70.0903 23.7386 69.9832 24.0007 69.9148 24.2969C69.8465 24.5885 69.8123 24.8984 69.8123 25.2266ZM79.5441 27.8242C79.813 27.8242 80.0546 27.7718 80.2687 27.667C80.4875 27.5576 80.663 27.4072 80.7951 27.2158C80.9318 27.0244 81.007 26.8034 81.0207 26.5527H82.5725C82.5633 27.0312 82.4221 27.4665 82.1486 27.8584C81.8752 28.2503 81.5129 28.5625 81.0617 28.7949C80.6105 29.0228 80.1115 29.1367 79.5646 29.1367C78.9995 29.1367 78.5074 29.041 78.0881 28.8496C77.6688 28.6536 77.3202 28.3848 77.0422 28.043C76.7642 27.7012 76.5546 27.307 76.4133 26.8604C76.2766 26.4137 76.2082 25.9352 76.2082 25.4248V25.1855C76.2082 24.6751 76.2766 24.1966 76.4133 23.75C76.5546 23.2988 76.7642 22.9023 77.0422 22.5605C77.3202 22.2188 77.6688 21.9521 78.0881 21.7607C78.5074 21.5648 78.9973 21.4668 79.5578 21.4668C80.1503 21.4668 80.6698 21.5853 81.1164 21.8223C81.563 22.0547 81.9139 22.3805 82.1691 22.7998C82.4289 23.2145 82.5633 23.6976 82.5725 24.249H81.0207C81.007 23.9756 80.9387 23.7295 80.8156 23.5107C80.6971 23.2874 80.5285 23.1097 80.3098 22.9775C80.0956 22.8454 79.8381 22.7793 79.5373 22.7793C79.2046 22.7793 78.9289 22.8477 78.7102 22.9844C78.4914 23.1165 78.3205 23.2988 78.1975 23.5312C78.0744 23.7591 77.9855 24.0166 77.9309 24.3037C77.8807 24.5863 77.8557 24.8802 77.8557 25.1855V25.4248C77.8557 25.7301 77.8807 26.0264 77.9309 26.3135C77.981 26.6006 78.0676 26.8581 78.1906 27.0859C78.3182 27.3092 78.4914 27.4893 78.7102 27.626C78.9289 27.7581 79.2069 27.8242 79.5441 27.8242ZM87.1979 29.1367C86.651 29.1367 86.1565 29.0479 85.7145 28.8701C85.277 28.6878 84.9033 28.4349 84.5934 28.1113C84.288 27.7878 84.0533 27.4072 83.8893 26.9697C83.7252 26.5322 83.6432 26.0605 83.6432 25.5547V25.2812C83.6432 24.7025 83.7275 24.1784 83.8961 23.709C84.0647 23.2396 84.2994 22.8385 84.6002 22.5059C84.901 22.1686 85.2564 21.9111 85.6666 21.7334C86.0768 21.5557 86.5211 21.4668 86.9996 21.4668C87.5283 21.4668 87.9908 21.5557 88.3873 21.7334C88.7838 21.9111 89.1119 22.1618 89.3717 22.4854C89.636 22.8044 89.832 23.1849 89.9596 23.627C90.0917 24.069 90.1578 24.5566 90.1578 25.0898V25.7939H84.443V24.6113H88.5309V24.4814C88.5217 24.1852 88.4625 23.9072 88.3531 23.6475C88.2483 23.3877 88.0865 23.1781 87.8678 23.0186C87.649 22.859 87.3574 22.7793 86.9928 22.7793C86.7193 22.7793 86.4755 22.8385 86.2613 22.957C86.0517 23.071 85.8762 23.2373 85.735 23.4561C85.5937 23.6748 85.4843 23.9391 85.4068 24.249C85.3339 24.5544 85.2975 24.8984 85.2975 25.2812V25.5547C85.2975 25.8783 85.3408 26.179 85.4273 26.457C85.5185 26.7305 85.6507 26.9697 85.8238 27.1748C85.997 27.3799 86.2066 27.5417 86.4527 27.6602C86.6988 27.7741 86.9791 27.8311 87.2936 27.8311C87.69 27.8311 88.0432 27.7513 88.3531 27.5918C88.663 27.4323 88.9319 27.2067 89.1598 26.915L90.0279 27.7559C89.8684 27.9883 89.6611 28.2116 89.4059 28.4258C89.1507 28.6354 88.8385 28.8063 88.4693 28.9385C88.1048 29.0706 87.6809 29.1367 87.1979 29.1367ZM95.6924 26.9971C95.6924 26.833 95.6514 26.6849 95.5693 26.5527C95.4873 26.416 95.3301 26.293 95.0977 26.1836C94.8698 26.0742 94.5326 25.974 94.0859 25.8828C93.694 25.7962 93.334 25.6937 93.0059 25.5752C92.6823 25.4521 92.4043 25.304 92.1719 25.1309C91.9395 24.9577 91.7594 24.7526 91.6318 24.5156C91.5042 24.2786 91.4404 24.0052 91.4404 23.6953C91.4404 23.3945 91.5065 23.1097 91.6387 22.8408C91.7708 22.5719 91.96 22.335 92.2061 22.1299C92.4521 21.9248 92.7507 21.763 93.1016 21.6445C93.457 21.526 93.8535 21.4668 94.291 21.4668C94.9108 21.4668 95.4417 21.5716 95.8838 21.7812C96.3304 21.9863 96.6722 22.2666 96.9092 22.6221C97.1462 22.973 97.2646 23.3695 97.2646 23.8115H95.6172C95.6172 23.6156 95.5671 23.4333 95.4668 23.2646C95.3711 23.0915 95.2253 22.9525 95.0293 22.8477C94.8333 22.7383 94.5872 22.6836 94.291 22.6836C94.0085 22.6836 93.7738 22.7292 93.5869 22.8203C93.4046 22.9069 93.2679 23.0208 93.1768 23.1621C93.0902 23.3034 93.0469 23.4583 93.0469 23.627C93.0469 23.75 93.0697 23.8617 93.1152 23.9619C93.1654 24.0576 93.2474 24.1465 93.3613 24.2285C93.4753 24.306 93.6302 24.3789 93.8262 24.4473C94.0267 24.5156 94.2773 24.5817 94.5781 24.6455C95.1432 24.764 95.6286 24.9167 96.0342 25.1035C96.4443 25.2858 96.7588 25.5228 96.9775 25.8145C97.1963 26.1016 97.3057 26.4661 97.3057 26.9082C97.3057 27.2363 97.235 27.5371 97.0938 27.8105C96.957 28.0794 96.7565 28.3141 96.4922 28.5146C96.2279 28.7106 95.9111 28.8633 95.542 28.9727C95.1774 29.082 94.7673 29.1367 94.3115 29.1367C93.6416 29.1367 93.0742 29.0182 92.6094 28.7812C92.1445 28.5397 91.7913 28.2321 91.5498 27.8584C91.3128 27.4801 91.1943 27.0882 91.1943 26.6826H92.7871C92.8053 26.988 92.8896 27.2318 93.04 27.4141C93.195 27.5918 93.3864 27.7217 93.6143 27.8037C93.8467 27.8812 94.0859 27.9199 94.332 27.9199C94.6283 27.9199 94.8766 27.8812 95.0771 27.8037C95.2777 27.7217 95.4303 27.6123 95.5352 27.4756C95.64 27.3343 95.6924 27.1748 95.6924 26.9971ZM102.997 26.9971C102.997 26.833 102.956 26.6849 102.874 26.5527C102.792 26.416 102.635 26.293 102.403 26.1836C102.175 26.0742 101.838 25.974 101.391 25.8828C100.999 25.7962 100.639 25.6937 100.311 25.5752C99.9874 25.4521 99.7094 25.304 99.477 25.1309C99.2445 24.9577 99.0645 24.7526 98.9369 24.5156C98.8093 24.2786 98.7455 24.0052 98.7455 23.6953C98.7455 23.3945 98.8116 23.1097 98.9437 22.8408C99.0759 22.5719 99.265 22.335 99.5111 22.1299C99.7572 21.9248 100.056 21.763 100.407 21.6445C100.762 21.526 101.159 21.4668 101.596 21.4668C102.216 21.4668 102.747 21.5716 103.189 21.7812C103.635 21.9863 103.977 22.2666 104.214 22.6221C104.451 22.973 104.57 23.3695 104.57 23.8115H102.922C102.922 23.6156 102.872 23.4333 102.772 23.2646C102.676 23.0915 102.53 22.9525 102.334 22.8477C102.138 22.7383 101.892 22.6836 101.596 22.6836C101.314 22.6836 101.079 22.7292 100.892 22.8203C100.71 22.9069 100.573 23.0208 100.482 23.1621C100.395 23.3034 100.352 23.4583 100.352 23.627C100.352 23.75 100.375 23.8617 100.42 23.9619C100.47 24.0576 100.552 24.1465 100.666 24.2285C100.78 24.306 100.935 24.3789 101.131 24.4473C101.332 24.5156 101.582 24.5817 101.883 24.6455C102.448 24.764 102.934 24.9167 103.339 25.1035C103.749 25.2858 104.064 25.5228 104.283 25.8145C104.501 26.1016 104.611 26.4661 104.611 26.9082C104.611 27.2363 104.54 27.5371 104.399 27.8105C104.262 28.0794 104.062 28.3141 103.797 28.5146C103.533 28.7106 103.216 28.8633 102.847 28.9727C102.482 29.082 102.072 29.1367 101.617 29.1367C100.947 29.1367 100.379 29.0182 99.9145 28.7812C99.4496 28.5397 99.0964 28.2321 98.8549 27.8584C98.6179 27.4801 98.4994 27.0882 98.4994 26.6826H100.092C100.11 26.988 100.195 27.2318 100.345 27.4141C100.5 27.5918 100.691 27.7217 100.919 27.8037C101.152 27.8812 101.391 27.9199 101.637 27.9199C101.933 27.9199 102.182 27.8812 102.382 27.8037C102.583 27.7217 102.735 27.6123 102.84 27.4756C102.945 27.3343 102.997 27.1748 102.997 26.9971ZM107.917 21.6035V29H106.263V21.6035H107.917ZM106.153 19.6621C106.153 19.4115 106.235 19.2041 106.399 19.04C106.568 18.8714 106.8 18.7871 107.096 18.7871C107.388 18.7871 107.618 18.8714 107.787 19.04C107.956 19.2041 108.04 19.4115 108.04 19.6621C108.04 19.9082 107.956 20.1133 107.787 20.2773C107.618 20.4414 107.388 20.5234 107.096 20.5234C106.8 20.5234 106.568 20.4414 106.399 20.2773C106.235 20.1133 106.153 19.9082 106.153 19.6621ZM111.455 23.1826V29H109.808V21.6035H111.36L111.455 23.1826ZM111.161 25.0283L110.628 25.0215C110.633 24.4974 110.706 24.0166 110.847 23.5791C110.993 23.1416 111.193 22.7656 111.448 22.4512C111.708 22.1367 112.018 21.8952 112.378 21.7266C112.738 21.5534 113.139 21.4668 113.581 21.4668C113.937 21.4668 114.258 21.5169 114.545 21.6172C114.837 21.7129 115.085 21.8701 115.29 22.0889C115.5 22.3076 115.659 22.5924 115.769 22.9434C115.878 23.2897 115.933 23.7158 115.933 24.2217V29H114.279V24.2148C114.279 23.8594 114.226 23.5791 114.121 23.374C114.021 23.1644 113.873 23.0163 113.677 22.9297C113.486 22.8385 113.246 22.793 112.959 22.793C112.677 22.793 112.424 22.8522 112.2 22.9707C111.977 23.0892 111.788 23.251 111.633 23.4561C111.483 23.6611 111.366 23.8981 111.284 24.167C111.202 24.4359 111.161 24.723 111.161 25.0283ZM122.452 21.6035H123.949V28.7949C123.949 29.4603 123.808 30.0254 123.525 30.4902C123.242 30.9551 122.848 31.3083 122.342 31.5498C121.837 31.7959 121.251 31.9189 120.586 31.9189C120.303 31.9189 119.989 31.8779 119.642 31.7959C119.3 31.7139 118.968 31.5817 118.644 31.3994C118.325 31.2217 118.059 30.987 117.844 30.6953L118.617 29.7246C118.881 30.0391 119.173 30.2692 119.492 30.415C119.811 30.5609 120.146 30.6338 120.497 30.6338C120.875 30.6338 121.196 30.5632 121.461 30.4219C121.729 30.2852 121.937 30.0824 122.083 29.8135C122.228 29.5446 122.301 29.2165 122.301 28.8291V23.2783L122.452 21.6035ZM117.427 25.3838V25.2402C117.427 24.6797 117.496 24.1693 117.632 23.709C117.769 23.2441 117.965 22.8454 118.22 22.5127C118.476 22.1755 118.785 21.918 119.15 21.7402C119.515 21.5579 119.927 21.4668 120.387 21.4668C120.866 21.4668 121.274 21.5534 121.611 21.7266C121.953 21.8997 122.238 22.1481 122.465 22.4717C122.693 22.7907 122.871 23.1735 122.999 23.6201C123.131 24.0622 123.229 24.5544 123.293 25.0967V25.5547C123.233 26.0833 123.133 26.5664 122.992 27.0039C122.851 27.4414 122.664 27.8197 122.431 28.1387C122.199 28.4577 121.912 28.7038 121.57 28.877C121.233 29.0501 120.834 29.1367 120.374 29.1367C119.922 29.1367 119.515 29.0433 119.15 28.8564C118.79 28.6696 118.48 28.4076 118.22 28.0703C117.965 27.7331 117.769 27.3366 117.632 26.8809C117.496 26.4206 117.427 25.9215 117.427 25.3838ZM119.075 25.2402V25.3838C119.075 25.721 119.107 26.0355 119.171 26.3271C119.239 26.6188 119.341 26.8763 119.478 27.0996C119.619 27.3184 119.797 27.4915 120.011 27.6191C120.23 27.7422 120.488 27.8037 120.784 27.8037C121.171 27.8037 121.488 27.7217 121.734 27.5576C121.985 27.3936 122.176 27.1725 122.308 26.8945C122.445 26.612 122.541 26.2975 122.595 25.9512V24.7139C122.568 24.445 122.511 24.1943 122.424 23.9619C122.342 23.7295 122.231 23.5267 122.089 23.3535C121.948 23.1758 121.77 23.0391 121.556 22.9434C121.342 22.8431 121.089 22.793 120.797 22.793C120.501 22.793 120.244 22.8568 120.025 22.9844C119.806 23.112 119.626 23.2874 119.485 23.5107C119.348 23.734 119.246 23.9938 119.177 24.29C119.109 24.5863 119.075 24.903 119.075 25.2402Z" fill="#49454F"/>
<defs>
<clipPath id="clip0_1_71185">
<rect x="4.71875" y="4" width="40" height="40" rx="20" fill="white"/>
</clipPath>
</defs>
</svg>
