<svg width="20" height="20" viewBox="0 0 20 20" fill="none" xmlns="http://www.w3.org/2000/svg">
<path d="M13.491 1.66602H6.50768C3.47435 1.66602 1.66602 3.47435 1.66602 6.50768V13.4827C1.66602 16.5243 3.47435 18.3327 6.50768 18.3327H13.4827C16.516 18.3327 18.3243 16.5243 18.3243 13.491V6.50768C18.3327 3.47435 16.5243 1.66602 13.491 1.66602ZM13.9827 8.08268L9.25768 12.8077C9.14102 12.9243 8.98268 12.991 8.81602 12.991C8.64935 12.991 8.49102 12.9243 8.37435 12.8077L6.01602 10.4493C5.77435 10.2077 5.77435 9.80768 6.01602 9.56602C6.25768 9.32435 6.65768 9.32435 6.89935 9.56602L8.81602 11.4827L13.0993 7.19935C13.341 6.95768 13.741 6.95768 13.9827 7.19935C14.2243 7.44102 14.2243 7.83268 13.9827 8.08268Z" fill="#21005D"/>
</svg>
