<svg width="19" height="18" viewBox="0 0 19 18" fill="none" xmlns="http://www.w3.org/2000/svg">
<path d="M16.4723 10.9946L16.1648 12.3896C15.6323 14.7896 13.7498 16.4996 11.0348 16.4996H7.4648C4.7498 16.4996 2.8673 14.7896 2.3348 12.3896L2.0273 10.9946C1.8773 10.3121 2.2823 9.53961 2.9348 9.27711L3.9998 8.84961L8.1323 7.19211C8.4923 7.04961 8.8748 6.97461 9.2498 6.97461C9.6248 6.97461 10.0073 7.04961 10.3673 7.19211L14.4998 8.84961L15.5648 9.27711C16.2173 9.53961 16.6223 10.3121 16.4723 10.9946Z" fill="#6750A4"/>
<path d="M14.5 6V7.08C14.5 7.3425 14.23 7.53 13.9825 7.425L10.78 6.1425C9.7975 5.76 8.7025 5.76 7.7125 6.15L4.5175 7.4325C4.27 7.5375 4 7.35 4 7.0875V6C4 4.7625 5.0125 3.75 6.25 3.75H12.25C13.4875 3.75 14.5 4.7625 14.5 6Z" fill="#6750A4"/>
<path d="M11.125 3.75H7.375V2.25C7.375 1.8375 7.7125 1.5 8.125 1.5H10.375C10.7875 1.5 11.125 1.8375 11.125 2.25V3.75Z" fill="#6750A4"/>
</svg>
