<svg width="20" height="20" viewBox="0 0 20 20" fill="none" xmlns="http://www.w3.org/2000/svg">
<path d="M6.72937 11.0083L6.72911 11.0087C6.17163 11.8387 6.75209 12.966 7.76667 12.966H12.2333C13.2358 12.966 13.8305 11.8418 13.2709 11.0087L13.2706 11.0083C12.6153 10.035 11.3756 9.41602 10 9.41602C8.6244 9.41602 7.38469 10.035 6.72937 11.0083ZM5 2.08268H15C16.1569 2.08268 17.0833 3.0081 17.0833 4.14102V13.2327C17.0833 14.3656 16.1569 15.291 15 15.291H14.375C13.6096 15.291 12.8614 15.5908 12.3145 16.1373C12.3142 16.1375 12.314 16.1378 12.3137 16.1381L10.8906 17.5445C10.4029 18.026 9.60545 18.026 9.11772 17.5445L7.69463 16.1381C7.69435 16.1378 7.69408 16.1375 7.6938 16.1372C7.14745 15.5913 6.40779 15.291 5.63333 15.291H5C3.84314 15.291 2.91667 14.3656 2.91667 13.2327V4.14102C2.91667 3.0081 3.84314 2.08268 5 2.08268ZM12.3583 6.73268C12.3583 5.42756 11.3051 4.37435 10 4.37435C8.69488 4.37435 7.64167 5.42756 7.64167 6.73268C7.64167 8.0283 8.69372 9.09101 10 9.09101C11.3051 9.09101 12.3583 8.0378 12.3583 6.73268Z" fill="#292D32" stroke="#21005D" stroke-width="0.833333"/>
</svg>
