<svg xmlns="http://www.w3.org/2000/svg" width="18" height="19" viewBox="0 0 18 19" fill="none">
<path d="M9 2C4.86 2 1.5 5.36 1.5 9.5C1.5 13.64 4.86 17 9 17C13.14 17 16.5 13.64 16.5 9.5C16.5 5.36 13.14 2 9 2ZM11.625 10.0625H7.7325L9.0225 11.3525C9.24 11.57 9.24 11.93 9.0225 12.1475C8.91 12.26 8.7675 12.3125 8.625 12.3125C8.4825 12.3125 8.34 12.26 8.2275 12.1475L5.9775 9.8975C5.76 9.68 5.76 9.32 5.9775 9.1025L8.2275 6.8525C8.445 6.635 8.805 6.635 9.0225 6.8525C9.24 7.07 9.24 7.43 9.0225 7.6475L7.7325 8.9375H11.625C11.9325 8.9375 12.1875 9.1925 12.1875 9.5C12.1875 9.8075 11.9325 10.0625 11.625 10.0625Z" fill="white"/>
</svg>