<svg width="40" height="40" viewBox="0 0 40 40" fill="none" xmlns="http://www.w3.org/2000/svg">
<path d="M24 20.75H16C15.59 20.75 15.25 20.41 15.25 20C15.25 19.59 15.59 19.25 16 19.25H24C24.41 19.25 24.75 19.59 24.75 20C24.75 20.41 24.41 20.75 24 20.75Z" fill="#292D32"/>
<path d="M20 24.75C19.59 24.75 19.25 24.41 19.25 24V16C19.25 15.59 19.59 15.25 20 15.25C20.41 15.25 20.75 15.59 20.75 16V24C20.75 24.41 20.41 24.75 20 24.75Z" fill="#292D32"/>
<path d="M23 30.75H17C11.57 30.75 9.25 28.43 9.25 23V17C9.25 11.57 11.57 9.25 17 9.25H23C28.43 9.25 30.75 11.57 30.75 17V23C30.75 28.43 28.43 30.75 23 30.75ZM17 10.75C12.39 10.75 10.75 12.39 10.75 17V23C10.75 27.61 12.39 29.25 17 29.25H23C27.61 29.25 29.25 27.61 29.25 23V17C29.25 12.39 27.61 10.75 23 10.75H17Z" fill="#292D32"/>
</svg>
