<svg width="40" height="40" viewBox="0 0 40 40" fill="none" xmlns="http://www.w3.org/2000/svg">
<path d="M19.5 29.75C13.85 29.75 9.25 25.15 9.25 19.5C9.25 13.85 13.85 9.25 19.5 9.25C25.15 9.25 29.75 13.85 29.75 19.5C29.75 25.15 25.15 29.75 19.5 29.75ZM19.5 10.75C14.67 10.75 10.75 14.68 10.75 19.5C10.75 24.32 14.67 28.25 19.5 28.25C24.33 28.25 28.25 24.32 28.25 19.5C28.25 14.68 24.33 10.75 19.5 10.75Z" fill="#79747E"/>
<path d="M29.9995 30.7495C29.8095 30.7495 29.6195 30.6795 29.4695 30.5295L27.4695 28.5295C27.1795 28.2395 27.1795 27.7595 27.4695 27.4695C27.7595 27.1795 28.2395 27.1795 28.5295 27.4695L30.5295 29.4695C30.8195 29.7595 30.8195 30.2395 30.5295 30.5295C30.3795 30.6795 30.1895 30.7495 29.9995 30.7495Z" fill="#79747E"/>
</svg>
