<svg width="18" height="19" viewBox="0 0 18 19" fill="none" xmlns="http://www.w3.org/2000/svg">
<path d="M16.5004 4.3325V12.8525C16.5004 13.94 15.7204 14.3975 14.7679 13.8725L13.3204 13.0625C13.2004 12.995 13.1254 12.8675 13.1254 12.7325V7.2425C13.1254 5.3375 11.5729 3.785 9.66787 3.785H6.61537C6.33787 3.785 6.14287 3.4925 6.27037 3.2525C6.66037 2.51 7.44037 2 8.33287 2H14.1679C15.4504 2 16.5004 3.05 16.5004 4.3325Z" fill="white"/>
<path d="M9.6675 4.91016H3.8325C2.55 4.91016 1.5 5.96016 1.5 7.24266V15.7627C1.5 16.8502 2.28 17.3077 3.2325 16.7827L6.18 15.1402C6.495 14.9677 7.005 14.9677 7.32 15.1402L10.2675 16.7827C11.22 17.3077 12 16.8502 12 15.7627V7.24266C12 5.96016 10.95 4.91016 9.6675 4.91016ZM8.25 10.0627H7.3125V11.0002C7.3125 11.3077 7.0575 11.5627 6.75 11.5627C6.4425 11.5627 6.1875 11.3077 6.1875 11.0002V10.0627H5.25C4.9425 10.0627 4.6875 9.80766 4.6875 9.50016C4.6875 9.19266 4.9425 8.93766 5.25 8.93766H6.1875V8.00016C6.1875 7.69266 6.4425 7.43766 6.75 7.43766C7.0575 7.43766 7.3125 7.69266 7.3125 8.00016V8.93766H8.25C8.5575 8.93766 8.8125 9.19266 8.8125 9.50016C8.8125 9.80766 8.5575 10.0627 8.25 10.0627Z" fill="white"/>
</svg>
