<svg width="31" height="30" viewBox="0 0 31 30" fill="none" xmlns="http://www.w3.org/2000/svg">
<path d="M15.5 27.5C22.4 27.5 28 21.9 28 15C28 8.1 22.4 2.5 15.5 2.5C8.6 2.5 3 8.1 3 15C3 21.9 8.6 27.5 15.5 27.5ZM11.125 14.0625L17.6125 14.0625L15.4625 11.9125C15.1 11.55 15.1 10.95 15.4625 10.5875C15.65 10.4 15.8875 10.3125 16.125 10.3125C16.3625 10.3125 16.6 10.4 16.7875 10.5875L20.5375 14.3375C20.9 14.7 20.9 15.3 20.5375 15.6625L16.7875 19.4125C16.425 19.775 15.825 19.775 15.4625 19.4125C15.1 19.05 15.1 18.45 15.4625 18.0875L17.6125 15.9375L11.125 15.9375C10.6125 15.9375 10.1875 15.5125 10.1875 15C10.1875 14.4875 10.6125 14.0625 11.125 14.0625Z" fill="#79747E"/>
</svg>
