<svg width="19" height="18" viewBox="0 0 19 18" fill="none" xmlns="http://www.w3.org/2000/svg">
<path d="M16.2266 6.99657L16.2266 6.99648C14.5289 4.32871 12.0658 2.82227 9.5 2.82227C8.21519 2.82227 6.9627 3.19728 5.81378 3.90252C4.6646 4.61542 3.62558 5.65949 2.77336 6.99657H16.2266ZM16.2266 6.99657C16.5705 7.53649 16.75 8.26148 16.75 8.99883C16.75 9.73625 16.5705 10.459 16.227 10.9948L16.2267 10.9954C15.3744 12.3325 14.3354 13.3766 13.1862 14.0895C12.0373 14.7948 10.7848 15.1698 9.5 15.1698C6.93394 15.1698 4.471 13.6705 2.77358 10.9958L2.77336 10.9955M16.2266 6.99657L2.77336 10.9955M2.77336 10.9955C2.4294 10.4554 2.25 9.73227 2.25 8.99602M2.77336 10.9955L2.25 8.99602M2.25 8.99602C2.25 8.25978 2.42938 7.53665 2.77332 6.99663L2.25 8.99602ZM6.22 8.99977C6.22 10.8099 7.68153 12.2798 9.5 12.2798C11.3185 12.2798 12.78 10.8099 12.78 8.99977C12.78 7.1896 11.3185 5.71977 9.5 5.71977C7.68153 5.71977 6.22 7.1896 6.22 8.99977Z" fill="white" stroke="#6750A4" stroke-width="0.5"/>
<path d="M7.61328 9.00047C7.61328 7.95297 8.46192 7.10547 9.50078 7.10547C10.5402 7.10547 11.3958 7.96104 11.3958 9.00047C11.3958 10.0388 10.5414 10.888 9.50078 10.888C8.46135 10.888 7.61328 10.0399 7.61328 9.00047Z" fill="white" stroke="#6750A4" stroke-width="0.5"/>
</svg>
