<svg width="48" height="48" viewBox="0 0 48 48" fill="none" xmlns="http://www.w3.org/2000/svg">
<g clip-path="url(#clip0_1_29339)">
<path d="M31.24 17.5805H30.84L27.46 14.2005C27.19 13.9305 26.75 13.9305 26.47 14.2005C26.2 14.4705 26.2 14.9105 26.47 15.1905L28.86 17.5805H19.14L21.53 15.1905C21.8 14.9205 21.8 14.4805 21.53 14.2005C21.26 13.9305 20.82 13.9305 20.54 14.2005L17.17 17.5805H16.77C15.87 17.5805 14 17.5805 14 20.1405C14 21.1105 14.2 21.7505 14.62 22.1705C14.86 22.4205 15.15 22.5505 15.46 22.6205C15.75 22.6905 16.06 22.7005 16.36 22.7005H31.64C31.95 22.7005 32.24 22.6805 32.52 22.6205C33.36 22.4205 34 21.8205 34 20.1405C34 17.5805 32.13 17.5805 31.24 17.5805Z" fill="#B3261E"/>
<path d="M31.0506 24H16.8706C16.2506 24 15.7806 24.55 15.8806 25.16L16.7206 30.3C17.0006 32.02 17.7506 34 21.0806 34H26.6906C30.0606 34 30.6606 32.31 31.0206 30.42L32.0306 25.19C32.1506 24.57 31.6806 24 31.0506 24ZM22.6106 30.45C22.6106 30.84 22.3006 31.15 21.9206 31.15C21.5306 31.15 21.2206 30.84 21.2206 30.45V27.15C21.2206 26.77 21.5306 26.45 21.9206 26.45C22.3006 26.45 22.6106 26.77 22.6106 27.15V30.45ZM26.8906 30.45C26.8906 30.84 26.5806 31.15 26.1906 31.15C25.8106 31.15 25.4906 30.84 25.4906 30.45V27.15C25.4906 26.77 25.8106 26.45 26.1906 26.45C26.5806 26.45 26.8906 26.77 26.8906 27.15V30.45Z" fill="#B3261E"/>
</g>
<defs>
<clipPath id="clip0_1_29339">
<rect x="4" y="4" width="40" height="40" rx="20" fill="white"/>
</clipPath>
</defs>
</svg>
