<svg width="16" height="16" viewBox="0 0 16 16" fill="none" xmlns="http://www.w3.org/2000/svg">
<path d="M8 0.5C3.86 0.5 0.5 3.86 0.5 8C0.5 12.14 3.86 15.5 8 15.5C12.14 15.5 15.5 12.14 15.5 8C15.5 3.86 12.14 0.5 8 0.5ZM10.625 8.5625H6.7325L8.0225 9.8525C8.24 10.07 8.24 10.43 8.0225 10.6475C7.91 10.76 7.7675 10.8125 7.625 10.8125C7.4825 10.8125 7.34 10.76 7.2275 10.6475L4.9775 8.3975C4.76 8.18 4.76 7.82 4.9775 7.6025L7.2275 5.3525C7.445 5.135 7.805 5.135 8.0225 5.3525C8.24 5.57 8.24 5.93 8.0225 6.1475L6.7325 7.4375H10.625C10.9325 7.4375 11.1875 7.6925 11.1875 8C11.1875 8.3075 10.9325 8.5625 10.625 8.5625Z" fill="#6750A4"/>
</svg>
