<svg width="19" height="18" viewBox="0 0 19 18" fill="none" xmlns="http://www.w3.org/2000/svg">
<path d="M16.9723 10.9946L16.6648 12.3896C16.1323 14.7896 14.2498 16.4996 11.5348 16.4996H7.9648C5.2498 16.4996 3.3673 14.7896 2.8348 12.3896L2.5273 10.9946C2.3773 10.3121 2.7823 9.53961 3.4348 9.27711L4.4998 8.84961L8.6323 7.19211C8.9923 7.04961 9.3748 6.97461 9.7498 6.97461C10.1248 6.97461 10.5073 7.04961 10.8673 7.19211L14.9998 8.84961L16.0648 9.27711C16.7173 9.53961 17.1223 10.3121 16.9723 10.9946Z" fill="white"/>
<path d="M15 6V7.08C15 7.3425 14.73 7.53 14.4825 7.425L11.28 6.1425C10.2975 5.76 9.2025 5.76 8.2125 6.15L5.0175 7.4325C4.77 7.5375 4.5 7.35 4.5 7.0875V6C4.5 4.7625 5.5125 3.75 6.75 3.75H12.75C13.9875 3.75 15 4.7625 15 6Z" fill="white"/>
<path d="M11.625 3.75H7.875V2.25C7.875 1.8375 8.2125 1.5 8.625 1.5H10.875C11.2875 1.5 11.625 1.8375 11.625 2.25V3.75Z" fill="white"/>
</svg>
