<svg width="16" height="17" viewBox="0 0 16 17" fill="none" xmlns="http://www.w3.org/2000/svg">
<path d="M14.4375 10.7188C14.4375 13.2584 12.3834 15.3125 9.84375 15.3125L10.5328 14.1641" fill="white"/>
<path d="M14.4375 10.7188C14.4375 13.2584 12.3834 15.3125 9.84375 15.3125L10.5328 14.1641" stroke="#292D32" stroke-width="1.3125" stroke-linecap="round" stroke-linejoin="round"/>
<path d="M1.3125 6.78125C1.3125 4.24156 3.36656 2.1875 5.90625 2.1875L5.21719 3.33594" stroke="#292D32" stroke-width="1.3125" stroke-linecap="round" stroke-linejoin="round"/>
<path d="M14.4375 3.63125V3.70344C14.4375 3.88719 14.2931 4.03156 14.1094 4.03156H8.20312C8.01937 4.03156 7.875 3.88719 7.875 3.70344V3.63125C7.875 2.47625 8.16375 2.1875 9.33188 2.1875H12.9806C14.1488 2.1875 14.4375 2.47625 14.4375 3.63125Z" fill="#292D32"/>
<path d="M8.20312 4.6875C8.01937 4.6875 7.875 4.83187 7.875 5.01562V5.67188V6.32156C7.875 7.47656 8.16375 7.76531 9.33188 7.76531H12.9806C14.1488 7.76531 14.4375 7.47656 14.4375 6.32156V5.67188V5.01562C14.4375 4.83187 14.2931 4.6875 14.1094 4.6875H8.20312Z" fill="#292D32"/>
<path d="M7.875 11.1781V11.2503C7.875 11.4341 7.73063 11.5784 7.54688 11.5784H1.64062C1.45687 11.5784 1.3125 11.4341 1.3125 11.2503V11.1781C1.3125 10.0231 1.60125 9.73438 2.76937 9.73438H6.41812C7.58625 9.73438 7.875 10.0231 7.875 11.1781Z" fill="#292D32"/>
<path d="M1.64062 12.2344C1.45687 12.2344 1.3125 12.3787 1.3125 12.5625V13.2187V13.8684C1.3125 15.0234 1.60125 15.3122 2.76937 15.3122H6.41812C7.58625 15.3122 7.875 15.0234 7.875 13.8684V13.2187V12.5625C7.875 12.3787 7.73063 12.2344 7.54688 12.2344H1.64062Z" fill="#292D32"/>
</svg>
