<svg width="18" height="19" viewBox="0 0 18 19" fill="none" xmlns="http://www.w3.org/2000/svg">
<path d="M9 2C4.8675 2 1.5 5.3675 1.5 9.5C1.5 13.6325 4.8675 17 9 17C13.1325 17 16.5 13.6325 16.5 9.5C16.5 5.3675 13.1325 2 9 2ZM12.585 7.775L8.3325 12.0275C8.2275 12.1325 8.085 12.1925 7.935 12.1925C7.785 12.1925 7.6425 12.1325 7.5375 12.0275L5.415 9.905C5.1975 9.6875 5.1975 9.3275 5.415 9.11C5.6325 8.8925 5.9925 8.8925 6.21 9.11L7.935 10.835L11.79 6.98C12.0075 6.7625 12.3675 6.7625 12.585 6.98C12.8025 7.1975 12.8025 7.55 12.585 7.775Z" fill="white"/>
</svg>
