<svg width="18" height="19" viewBox="0 0 18 19" fill="none" xmlns="http://www.w3.org/2000/svg">
<path d="M16.0874 10.7305V11.4805C16.0874 11.683 15.9299 11.848 15.7199 11.8555H14.6249C14.2274 11.8555 13.8674 11.563 13.8374 11.173C13.8149 10.9405 13.9049 10.723 14.0549 10.573C14.1899 10.4305 14.3774 10.3555 14.5799 10.3555H15.7124C15.9299 10.363 16.0874 10.528 16.0874 10.7305Z" fill="white"/>
<path d="M13.4929 10.018C13.1179 10.3855 12.9379 10.933 13.0879 11.503C13.2829 12.2005 13.9654 12.643 14.6854 12.643H15.3379C15.7504 12.643 16.0879 12.9805 16.0879 13.393V13.5355C16.0879 15.088 14.8204 16.3555 13.2679 16.3555H4.65789C3.10539 16.3555 1.83789 15.088 1.83789 13.5355V8.48797C1.83789 7.56547 2.28039 6.74797 2.96289 6.23797C3.43539 5.87797 4.02039 5.66797 4.65789 5.66797H13.2679C14.8204 5.66797 16.0879 6.93547 16.0879 8.48797V8.81797C16.0879 9.23047 15.7504 9.56797 15.3379 9.56797H14.5729C14.1529 9.56797 13.7704 9.73297 13.4929 10.018Z" fill="white"/>
<path d="M12.1493 4.115C12.3518 4.3175 12.1793 4.6325 11.8943 4.6325L6.13431 4.625C5.80431 4.625 5.63181 4.22 5.87181 3.9875L7.08681 2.765C8.11431 1.745 9.77931 1.745 10.8068 2.765L12.1193 4.0925C12.1268 4.1 12.1418 4.1075 12.1493 4.115Z" fill="white"/>
</svg>
