<svg width="18" height="18" viewBox="0 0 18 18" fill="none" xmlns="http://www.w3.org/2000/svg">
<path d="M11.4444 16.6882H6.55438C2.87188 16.6882 1.29688 15.1132 1.29688 11.4307V11.3332C1.29688 8.00319 2.60938 6.39819 5.54938 6.12069C5.84938 6.09819 6.13438 6.32319 6.16438 6.63069C6.19438 6.93819 5.96938 7.21569 5.65438 7.24569C3.29938 7.46319 2.42188 8.57319 2.42188 11.3407V11.4382C2.42188 14.4907 3.50187 15.5707 6.55438 15.5707H11.4444C14.4969 15.5707 15.5769 14.4907 15.5769 11.4382V11.3407C15.5769 8.55819 14.6844 7.44819 12.2844 7.24569C11.9769 7.21569 11.7444 6.94569 11.7744 6.63819C11.8044 6.33069 12.0669 6.09819 12.3819 6.12819C15.3669 6.38319 16.7019 7.99569 16.7019 11.3482V11.4457C16.7019 15.1132 15.1269 16.6882 11.4444 16.6882Z" fill="#292D32"/>
<path d="M9 11.8123C8.6925 11.8123 8.4375 11.5573 8.4375 11.2498V2.71484C8.4375 2.40734 8.6925 2.15234 9 2.15234C9.3075 2.15234 9.5625 2.40734 9.5625 2.71484V11.2498C9.5625 11.5573 9.3075 11.8123 9 11.8123Z" fill="#292D32"/>
<path d="M11.5134 4.95008C11.3709 4.95008 11.2284 4.89758 11.1159 4.78508L9.00086 2.67008L6.88586 4.78508C6.66836 5.00258 6.30836 5.00258 6.09086 4.78508C5.87336 4.56758 5.87336 4.20758 6.09086 3.99008L8.60336 1.47758C8.82086 1.26008 9.18086 1.26008 9.39836 1.47758L11.9109 3.99008C12.1284 4.20758 12.1284 4.56758 11.9109 4.78508C11.8059 4.89758 11.6559 4.95008 11.5134 4.95008Z" fill="#292D32"/>
</svg>
