<svg width="20" height="20" viewBox="0 0 20 20" fill="none" xmlns="http://www.w3.org/2000/svg">
<path d="M13.491 1.66602H6.50768C3.47435 1.66602 1.66602 3.47435 1.66602 6.50768V13.4827C1.66602 16.5243 3.47435 18.3327 6.50768 18.3327H13.4827C16.516 18.3327 18.3243 16.5243 18.3243 13.491V6.50768C18.3327 3.47435 16.5243 1.66602 13.491 1.66602ZM11.5993 13.441H7.49935C7.15768 13.441 6.87435 13.1577 6.87435 12.816C6.87435 12.4743 7.15768 12.191 7.49935 12.191H11.5993C12.666 12.191 13.541 11.3243 13.541 10.2493C13.541 9.17435 12.6743 8.30768 11.5993 8.30768H7.37435L7.59102 8.52435C7.83268 8.77435 7.83268 9.16602 7.58268 9.41602C7.45768 9.54102 7.29935 9.59935 7.14102 9.59935C6.98268 9.59935 6.82435 9.54102 6.69935 9.41602L5.39102 8.09935C5.14935 7.85768 5.14935 7.45768 5.39102 7.21602L6.69935 5.90768C6.94102 5.66602 7.34102 5.66602 7.58268 5.90768C7.82435 6.14935 7.82435 6.54935 7.58268 6.79102L7.30768 7.06602H11.5993C13.3577 7.06602 14.791 8.49935 14.791 10.2577C14.791 12.016 13.3577 13.441 11.5993 13.441Z" fill="#6750A4"/>
</svg>
