<svg width="16" height="16" viewBox="0 0 16 16" fill="none" xmlns="http://www.w3.org/2000/svg">
<path d="M8 0.5C3.86 0.5 0.5 3.86 0.5 8C0.5 12.14 3.86 15.5 8 15.5C12.14 15.5 15.5 12.14 15.5 8C15.5 3.86 12.14 0.5 8 0.5ZM11.0225 8.3975L8.7725 10.6475C8.66 10.76 8.5175 10.8125 8.375 10.8125C8.2325 10.8125 8.09 10.76 7.9775 10.6475C7.76 10.43 7.76 10.07 7.9775 9.8525L9.2675 8.5625H5.375C5.0675 8.5625 4.8125 8.3075 4.8125 8C4.8125 7.6925 5.0675 7.4375 5.375 7.4375H9.2675L7.9775 6.1475C7.76 5.93 7.76 5.57 7.9775 5.3525C8.195 5.135 8.555 5.135 8.7725 5.3525L11.0225 7.6025C11.24 7.82 11.24 8.18 11.0225 8.3975Z" fill="white"/>
</svg>
