<svg width="20" height="20" viewBox="0 0 20 20" fill="none" xmlns="http://www.w3.org/2000/svg">
<path d="M13.491 1.66602H6.50768C3.47435 1.66602 1.66602 3.47435 1.66602 6.50768V13.4827C1.66602 16.5243 3.47435 18.3327 6.50768 18.3327H13.4827C16.516 18.3327 18.3243 16.5243 18.3243 13.491V6.50768C18.3327 3.47435 16.5243 1.66602 13.491 1.66602ZM5.83268 11.091C5.23268 11.091 4.74102 10.5993 4.74102 9.99935C4.74102 9.39935 5.23268 8.90768 5.83268 8.90768C6.43268 8.90768 6.92435 9.39935 6.92435 9.99935C6.92435 10.5993 6.43268 11.091 5.83268 11.091ZM9.99935 11.091C9.39935 11.091 8.90768 10.5993 8.90768 9.99935C8.90768 9.39935 9.39935 8.90768 9.99935 8.90768C10.5993 8.90768 11.091 9.39935 11.091 9.99935C11.091 10.5993 10.5993 11.091 9.99935 11.091ZM14.166 11.091C13.566 11.091 13.0743 10.5993 13.0743 9.99935C13.0743 9.39935 13.566 8.90768 14.166 8.90768C14.766 8.90768 15.2577 9.39935 15.2577 9.99935C15.2577 10.5993 14.766 11.091 14.166 11.091Z" fill="#B3261E"/>
</svg>
