<svg width="40" height="41" viewBox="0 0 40 41" fill="none" xmlns="http://www.w3.org/2000/svg">
<path d="M17 10.5H23C28 10.5 30 12.5 30 17.5V23.5C30 28.5 28 30.5 23 30.5H17C12 30.5 10 28.5 10 23.5V17.5C10 12.5 12 10.5 17 10.5Z" stroke="#292D32" stroke-width="1.5" stroke-linecap="round" stroke-linejoin="round"/>
<path d="M16.5703 23.7704L23.1103 17.2305" stroke="#292D32" stroke-width="1.5" stroke-linecap="round" stroke-linejoin="round"/>
<path d="M16.98 18.8701C17.6593 18.8701 18.21 18.3195 18.21 17.6402C18.21 16.9609 17.6593 16.4102 16.98 16.4102C16.3007 16.4102 15.75 16.9609 15.75 17.6402C15.75 18.3195 16.3007 18.8701 16.98 18.8701Z" stroke="#292D32" stroke-width="1.5" stroke-linecap="round" stroke-linejoin="round"/>
<path d="M23.519 24.5909C24.1984 24.5909 24.7491 24.0402 24.7491 23.3608C24.7491 22.6815 24.1984 22.1309 23.519 22.1309C22.8397 22.1309 22.2891 22.6815 22.2891 23.3608C22.2891 24.0402 22.8397 24.5909 23.519 24.5909Z" stroke="#292D32" stroke-width="1.5" stroke-linecap="round" stroke-linejoin="round"/>
</svg>
