<svg width="18" height="18" viewBox="0 0 18 18" fill="none" xmlns="http://www.w3.org/2000/svg">
<path d="M9 17.0628C8.475 17.0628 7.9425 16.8603 7.545 16.4628L6.2625 15.1953C5.94 14.8803 5.52 14.7078 5.07 14.7078H4.5C2.9475 14.7078 1.6875 13.4553 1.6875 11.9178V3.73529C1.6875 2.19779 2.9475 0.945312 4.5 0.945312H13.5C15.0525 0.945312 16.3125 2.19779 16.3125 3.73529V11.9178C16.3125 13.4553 15.0525 14.7078 13.5 14.7078H12.93C12.48 14.7078 12.0525 14.8803 11.7375 15.1953L10.455 16.4628C10.0575 16.8603 9.525 17.0628 9 17.0628ZM4.5 2.06281C3.57 2.06281 2.8125 2.81278 2.8125 3.72778V11.9103C2.8125 12.8328 3.57 13.5753 4.5 13.5753H5.07C5.82 13.5753 6.525 13.8678 7.0575 14.3928L8.34 15.6603C8.7075 16.0203 9.3 16.0203 9.6675 15.6603L10.95 14.3928C11.4825 13.8678 12.1875 13.5753 12.9375 13.5753H13.5C14.43 13.5753 15.1875 12.8253 15.1875 11.9103V3.72778C15.1875 2.80528 14.43 2.06281 13.5 2.06281H4.5Z" fill="white"/>
<path d="M7.78469 10.8832H5.77468C5.44468 10.8832 5.13718 10.7257 4.94218 10.4557C4.75468 10.2007 4.70968 9.88575 4.79968 9.58575C5.06218 8.78325 5.70718 8.34822 6.27718 7.95822C6.87718 7.55322 7.21468 7.29825 7.21468 6.86325C7.21468 6.47325 6.89968 6.1582 6.50968 6.1582C6.11968 6.1582 5.80469 6.47325 5.80469 6.86325C5.80469 7.17075 5.54969 7.42575 5.24219 7.42575C4.93469 7.42575 4.67969 7.17075 4.67969 6.86325C4.67969 5.85825 5.49718 5.0332 6.50968 5.0332C7.52218 5.0332 8.33968 5.85075 8.33968 6.86325C8.33968 7.92075 7.54469 8.46072 6.90719 8.89572C6.50969 9.16572 6.13468 9.42074 5.94718 9.75824H7.77718C8.08468 9.75824 8.33968 10.0132 8.33968 10.3207C8.33968 10.6282 8.09219 10.8832 7.78469 10.8832Z" fill="white"/>
<path d="M12.0301 10.8817C11.7226 10.8817 11.4676 10.6267 11.4676 10.3192V9.80168H9.99765C9.99765 9.80168 9.99766 9.80168 9.99016 9.80168C9.62266 9.80168 9.28516 9.60673 9.09766 9.29173C8.91016 8.96923 8.91016 8.57173 9.09766 8.25673C9.60766 7.37923 10.2002 6.3817 10.7402 5.5117C10.9802 5.1292 11.4377 4.95673 11.8652 5.07673C12.2927 5.20423 12.5927 5.59426 12.5852 6.04426V8.68419H12.7502C13.0577 8.68419 13.3127 8.93919 13.3127 9.24669C13.3127 9.55419 13.0577 9.80919 12.7502 9.80919H12.5926V10.3267C12.5926 10.6342 12.3451 10.8817 12.0301 10.8817ZM11.4676 6.47923C11.0251 7.19923 10.5676 7.97168 10.1551 8.67668H11.4676V6.47923Z" fill="white"/>
</svg>
